PathFileType	4	(X/Y/Z)	C:\Users\Basilio\Documents\Thesis Gigler\squatting_fais\c3dfiles\044\SLS_back_pre5\markers_experimental.trc
DataRate	CameraRate	NumFrames	NumMarkers	Units	OrigDataRate	OrigDataStartFrame	OrigNumFrames
200.000000	200.000000	4	63	mm	200.000000	0	1393
Frame#	Time	FHD			LBHD			RBHD			C7			T10			LSHO			LUUPA			LMUPA			LDUPA			LLEP			LMEP			LUL			LRFIN			RSHO			RUPA1			RMUPA			RDUPA			RLEP			RMEP			RUL			RUFIN			LASI			RASI			USACR			LSACR			RSACR			LTHI1			LTHI2			LTHI3			LTHI4			LLFC			LMFC			LTIB1			LTIB2			LTIB3			LTIB4			LLMAL			LMMAL			LHEE			LMT1			LMT2			LMT5			RTHI			RTHI2			RTHI3			RTHI4			RLFC			RMFC			RTIB1			RTIB2			RTIB3			RTIB4			RLMAL			RHEE			RMT1			RMT2			RMT5			RMMAL			CLAV			LRAD			RRAD			*61			*62			
		X1	Y1	Z1	X2	Y2	Z2	X3	Y3	Z3	X4	Y4	Z4	X5	Y5	Z5	X6	Y6	Z6	X7	Y7	Z7	X8	Y8	Z8	X9	Y9	Z9	X10	Y10	Z10	X11	Y11	Z11	X12	Y12	Z12	X13	Y13	Z13	X14	Y14	Z14	X15	Y15	Z15	X16	Y16	Z16	X17	Y17	Z17	X18	Y18	Z18	X19	Y19	Z19	X20	Y20	Z20	X21	Y21	Z21	X22	Y22	Z22	X23	Y23	Z23	X24	Y24	Z24	X25	Y25	Z25	X26	Y26	Z26	X27	Y27	Z27	X28	Y28	Z28	X29	Y29	Z29	X30	Y30	Z30	X31	Y31	Z31	X32	Y32	Z32	X33	Y33	Z33	X34	Y34	Z34	X35	Y35	Z35	X36	Y36	Z36	X37	Y37	Z37	X38	Y38	Z38	X39	Y39	Z39	X40	Y40	Z40	X41	Y41	Z41	X42	Y42	Z42	X43	Y43	Z43	X44	Y44	Z44	X45	Y45	Z45	X46	Y46	Z46	X47	Y47	Z47	X48	Y48	Z48	X49	Y49	Z49	X50	Y50	Z50	X51	Y51	Z51	X52	Y52	Z52	X53	Y53	Z53	X54	Y54	Z54	X55	Y55	Z55	X56	Y56	Z56	X57	Y57	Z57	X58	Y58	Z58	X59	Y59	Z59	X60	Y60	Z60	X61	Y61	Z61	X62	Y62	Z62	X63	Y63	Z63	

1	0	-228.7469940185547	1803.67041015625	-853.040954589844	-365.5363769531251	1753.5576171875	-916.0535888671877	-389.6416320800782	1735.399536132813	-752.0507202148439	-399.3504333496095	1557.615600585938	-841.0587158203127	-368.6433105468751	1254.44921875	-842.9522094726565	-312.6221008300782	1590.152099609375	-989.0242919921877	-151.2513732910157	1576.123901367188	-1095.979370117188	-122.5616073608399	1588.779663085938	-1056.330444335938	-82.59143066406251	1574.567749023438	-1100.32421875	-24.68090438842774	1576.637817382813	-1092.439208984375	-29.11083412170411	1501.4052734375	-1079.615112304688	230.2087402343751	1604.246459960938	-975.7650146484377	244.1672363281251	1621.76708984375	-875.1826171875002	-303.8435058593751	1569.19189453125	-685.5482177734376	-145.1784820556641	1555.796630859375	-588.5883178710939	-118.0416870117188	1573.126708984375	-628.4276733398439	-75.6454544067383	1560.787353515625	-586.4262695312501	-15.07780075073243	1568.87255859375	-597.4029541015626	-11.71091461181641	1487.774291992188	-608.5022583007814	235.9060211181641	1603.601440429688	-724.4869384765626	234.1056060791016	1585.248657226563	-839.1995239257815	-189.0185089111328	1071.3056640625	-963.6690673828127	-166.4295959472657	1056.12744140625	-746.1685791015626	-348.3652954101563	1113.900512695313	-834.3222656250002	-355.2895507812501	1081.136474609375	-860.4150390625002	-347.0461120605469	1083.7041015625	-803.3916015625002	-298.6133117675782	838.6489868164065	-1036.50537109375	-267.8781433105469	760.0150146484376	-1046.7099609375	-219.1009368896485	760.0953979492189	-1043.038330078125	-296.1086730957032	707.4352416992189	-1034.483520507813	-284.6994628906251	547.6086425781251	-1033.775390625	-266.3017578125001	530.3978881835939	-913.5078125000002	-264.1695556640626	366.1649475097657	-980.6592407226565	-295.5457763671876	327.8978881835938	-1054.299682617188	-263.8886413574219	321.8236999511719	-1019.966796875	-279.9895629882813	241.8425598144532	-997.439636230469	-336.2200622558594	128.5301361083985	-1052.34130859375	-315.2935485839844	133.6176910400391	-968.8293457031252	-398.824432373047	105.5007400512696	-1006.15478515625	-191.0668334960938	59.95368576049806	-982.7612915039065	-190.2823791503907	59.87671661376955	-1029.910766601563	-227.2168273925782	45.75126647949219	-1076.24267578125	-264.5462646484376	786.1072998046877	-666.1364135742189	-224.3335876464844	731.9276733398439	-669.8571166992189	-192.9275360107422	733.9710693359376	-676.2277221679689	-250.9195861816407	652.7234497070314	-682.5917968750001	-258.6483459472657	538.2183227539064	-691.5088500976564	-272.3314514160157	533.7406005859376	-815.292907714844	-231.1562805175782	405.9315490722657	-721.7192993164064	-304.9707946777344	342.9432373046876	-669.6566162109376	-265.7698974609376	331.1394348144532	-690.0000610351564	-263.9324951171876	279.9744567871094	-717.0295410156251	-346.2072143554688	137.6995849609375	-698.9173583984376	-408.4836425781251	110.0460586547852	-740.8412475585939	-205.8519287109376	62.30957794189455	-768.2999267578127	-198.0825347900391	59.06556320190431	-731.4403076171876	-236.1867828369141	47.02435302734376	-677.0263061523439	nan	nan	nan	nan	nan	nan	nan	nan	nan	nan	nan	nan	nan	nan	nan	nan	nan	nan	
2	0.005	-228.6833190917969	1803.639404296875	-853.0780029296877	-365.4677124023438	1753.57568359375	-916.1250000000002	-389.6815185546876	1735.3916015625	-752.1535644531251	-399.3374328613282	1557.669921875	-841.1220703125002	-368.6407470703126	1254.478881835938	-843.0025634765627	-312.7275085449219	1590.189819335938	-989.119567871094	-151.3376770019532	1576.178588867188	-1096.0244140625	-122.5295562744141	1588.82373046875	-1056.404663085938	-82.6156463623047	1574.578735351563	-1100.395385742188	-24.64967918395997	1576.716918945313	-1092.60888671875	-29.15670967102051	1501.47314453125	-1079.635131835938	230.2491149902344	1604.260620117188	-975.8728637695315	244.1619567871094	1621.787109375	-875.290710449219	-303.8043518066407	1569.235473632813	-685.6207885742189	-145.1157684326172	1555.874389648438	-588.6948852539064	-117.8584442138672	1572.954956054688	-628.4587402343751	-75.62161254882814	1560.859252929688	-586.5151977539064	-15.06858730316162	1568.934936523438	-597.5095214843751	-11.6577091217041	1487.849731445313	-608.5395507812501	235.9397888183594	1603.651123046875	-724.5783081054689	234.0621795654297	1585.255737304688	-839.2866821289065	-189.1738586425782	1071.267578125	-963.674499511719	-166.5344390869141	1056.161865234375	-746.2313842773439	-348.4156799316407	1113.906494140625	-834.3583984375002	-355.3338012695313	1081.151733398438	-860.431091308594	-347.0804748535157	1083.719970703125	-803.395690917969	-298.6590270996094	838.624938964844	-1036.51708984375	-267.8897399902344	760.0150756835939	-1046.723388671875	-219.1805725097657	760.0900268554689	-1043.047729492188	-296.0828247070313	707.4334106445314	-1034.511840820313	-284.7222900390626	547.6384277343751	-1033.794921875	-266.3446044921876	530.3851928710939	-913.5068359375002	-264.1695556640626	366.1649475097657	-980.6592407226565	-295.5391845703126	327.9031372070313	-1054.32568359375	-263.9205627441407	321.8120422363282	-1019.995666503906	-279.9895019531251	241.8424682617188	-997.439636230469	-336.2545471191407	128.5999145507813	-1052.334106445313	-315.3401489257813	133.5845642089844	-968.827575683594	-398.3424377441407	104.4875793457032	-1005.636901855469	-190.8681945800782	59.65183639526369	-982.1854248046877	-190.345932006836	59.86666107177736	-1029.8466796875	-227.5103607177735	46.79806900024415	-1076.076293945313	-264.4603271484376	786.4978637695315	-666.6948852539064	-224.4349517822266	731.9038696289064	-669.8895874023439	-192.9208068847657	733.9629516601564	-676.2891845703126	-250.9302368164063	652.7622680664064	-682.6280517578126	-258.6483764648438	538.2183837890626	-691.5087890625001	-272.3428039550782	533.7656250000001	-815.3004150390627	-231.141098022461	405.9313964843751	-721.7581787109376	-304.9660644531251	342.9425964355469	-669.6482543945314	-265.7815856933594	331.0282897949219	-690.1433715820314	-263.9239501953126	279.9736328125001	-717.0437622070314	-346.1683959960938	137.6731414794922	-698.9338989257814	-408.4418029785157	110.0625152587891	-740.8558349609376	-204.9756774902344	63.1333694458008	-767.8773803710939	-198.2203979492188	59.03689193725587	-731.8751220703126	-236.1667633056641	46.99784851074219	-676.9731445312501	nan	nan	nan	nan	nan	nan	nan	nan	nan	nan	nan	nan	nan	nan	nan	nan	nan	nan	
3	0.01	-228.6971282958985	1803.705932617188	-853.178161621094	-365.4559936523438	1753.581176757813	-916.1843872070315	-389.6843261718751	1735.413330078125	-752.2062377929689	-399.391082763672	1557.68212890625	-841.1964111328127	-368.7196960449219	1254.491577148438	-843.0452270507815	-312.6163330078126	1590.224487304688	-989.198669433594	-151.3687286376953	1576.202514648438	-1096.084838867188	-122.6009140014649	1588.865356445313	-1056.494995117188	-82.63363647460939	1574.620971679688	-1100.477416992188	-24.72900199890137	1576.77490234375	-1092.701904296875	-29.06316375732423	1501.571655273438	-1079.778198242188	230.2447967529297	1604.3134765625	-975.9946289062502	244.1270294189454	1621.79541015625	-875.3895263671877	-303.7873840332032	1569.250610351563	-685.6903076171876	-145.048080444336	1555.944580078125	-588.8046875000001	-117.899169921875	1573.204467773438	-628.6649780273439	-75.52558898925783	1560.910400390625	-586.6220703125001	-15.04469299316407	1569.002319335938	-597.5879516601564	-11.62171077728272	1487.95751953125	-608.6351318359376	235.9784088134766	1603.68017578125	-724.6712036132814	234.0081634521485	1585.303344726563	-839.4061279296877	-189.2453918457032	1071.254028320313	-963.756042480469	-166.6151275634766	1056.151245117188	-746.2941894531251	-348.4541015625001	1113.8984375	-834.389343261719	-355.3481140136719	1081.150268554688	-860.5128173828127	-347.2344360351563	1083.778198242188	-803.4525146484377	-298.6520996093751	838.641052246094	-1036.567993164063	-267.9159851074219	760.0229492187501	-1046.764038085938	-219.1715087890626	760.0950317382814	-1043.13232421875	-296.0927124023438	707.4254760742189	-1034.564086914063	-284.6997985839844	547.6467895507814	-1033.797485351563	-266.3268432617188	530.3919677734376	-913.5388793945315	-264.1872253417969	366.1593933105469	-980.6826782226565	-296.4235229492188	327.1050109863282	-1054.427978515625	-263.6628112792969	321.4765930175782	-1020.101745605469	-279.9894714355469	241.8424072265626	-997.439636230469	-336.2953186035157	128.5791473388672	-1052.3369140625	-315.3380432128907	133.6247711181641	-968.8419189453127	-398.423553466797	104.525749206543	-1005.588012695313	-191.0596313476563	60.04479217529298	-981.956237792969	-190.7053527832032	60.5210304260254	-1029.728881835938	-227.5439453125001	46.75210189819337	-1076.06884765625	-264.6093139648438	786.099304199219	-666.1766357421876	-224.4171905517579	731.9092407226564	-669.9197998046876	-192.9738311767579	733.9923095703126	-676.2659912109376	-250.9500122070313	652.7265014648439	-682.6087646484376	-258.6483459472657	538.2183227539064	-691.5088500976564	-272.3417968750001	533.7848510742189	-815.3140869140627	-231.1091308593751	405.9171752929689	-721.7423095703126	-304.9598693847657	342.9312744140626	-669.6500854492189	-265.7756347656251	331.0105285644532	-690.1394042968751	-263.9115905761719	279.9565734863282	-717.0215454101564	-346.2008361816407	137.6990966796875	-698.9085693359376	-408.4861145019532	110.077751159668	-740.8276367187501	-204.956527709961	63.1531219482422	-767.8875122070314	-198.2206268310547	59.03691482543947	-731.8753051757814	-236.1684265136719	47.01820373535157	-676.9820556640626	nan	nan	nan	nan	nan	nan	nan	nan	nan	nan	nan	nan	nan	nan	nan	nan	nan	nan	
4	0.015	-228.6971130371094	1803.637939453125	-853.323425292969	-365.5542297363282	1753.586791992188	-916.2876586914065	-389.6468811035157	1735.48876953125	-752.2781982421876	-399.3635253906251	1557.702026367188	-841.2315673828127	-368.7310485839844	1254.509399414063	-843.1329345703127	-312.7097167968751	1590.264282226563	-989.2398071289065	-151.3411102294922	1576.231567382813	-1096.20166015625	-122.603988647461	1588.865356445313	-1056.588134765625	-82.58986663818361	1574.645141601563	-1100.603637695313	-24.70051574707032	1576.794067382813	-1092.812744140625	-28.94195175170899	1501.640991210938	-1079.936889648438	230.2317504882813	1604.330200195313	-976.1121826171877	244.1407165527344	1621.810424804688	-875.4044189453127	-303.7334899902344	1569.298217773438	-685.7445068359376	-145.0221099853516	1555.939331054688	-588.8823852539064	-117.6713943481446	1573.250366210938	-628.8143920898439	-75.52718353271486	1560.942504882813	-586.7041625976564	-15.03494548797608	1569.030029296875	-597.7196655273439	-11.61116886138916	1487.9716796875	-608.7183837890626	235.9651336669922	1603.700561523438	-724.8092651367189	233.9729461669922	1585.34423828125	-839.4931640625002	-189.1986694335938	1071.271118164063	-963.851013183594	-166.7719879150391	1056.18798828125	-746.3037109375001	-348.5104980468751	1113.92626953125	-834.418884277344	-355.4901123046876	1081.131591796875	-860.555358886719	-347.2865295410157	1083.768920898438	-803.5008544921877	-298.8076171875001	838.6287231445315	-1036.580444335938	-267.9628906250001	760.0063476562501	-1046.790405273438	-219.2079467773438	760.0853881835939	-1043.159790039063	-296.1522216796876	707.3873291015626	-1034.5693359375	-284.7011108398438	547.6234741210939	-1033.822143554688	-266.3794250488282	530.3934326171876	-913.5701904296877	-264.2031250000001	366.1570739746094	-980.688171386719	-295.5916137695313	327.9061584472657	-1054.322631835938	-263.8790283203126	321.7811279296876	-1019.963317871094	-279.9894714355469	241.8424072265626	-997.439636230469	-336.2975769042969	128.5435943603516	-1052.336303710938	-315.3574523925782	133.6051177978516	-968.832214355469	-398.8195800781251	105.5295867919922	-1006.184692382813	-190.8654327392578	59.63226318359376	-982.1817016601565	-190.2869873046875	59.90739059448244	-1029.85400390625	-227.1896057128907	45.78916168212891	-1076.251098632813	-264.6491699218751	786.0976562500002	-666.2606201171876	-224.5125274658204	731.8984985351564	-669.9367065429689	-192.9761199951172	733.9856567382814	-676.2667236328126	-250.9828186035157	652.7077636718751	-682.6555786132814	-258.6344909667969	538.2149047851564	-691.5330810546876	-272.3379516601563	533.7665405273439	-815.3165283203127	-231.1234893798829	405.9173889160157	-721.7338867187501	-304.9707946777344	342.9511108398438	-669.6542968750001	-265.7700805664063	331.0257873535157	-690.1851806640626	-263.9338378906251	279.9510498046876	-717.0450439453126	-346.2109985351563	137.6858215332032	-698.9201660156251	-408.4802551269532	110.0882873535157	-740.8538818359376	-205.8282165527344	62.3295249938965	-768.3091430664065	-198.0563201904297	59.06705474853517	-731.5454711914064	-236.1346282958985	47.01521682739259	-676.9575805664064	nan	nan	nan	nan	nan	nan	nan	nan	nan	nan	nan	nan	nan	nan	nan	nan	nan	nan	
